# xmcd CD database file
#
# Track frame offsets:
#	150
#	16487
#	38337
#	58330
#	77085
#	100927
#	120195
#	139235
#	154800
#	167297
#	185165
#	202677
#	221352
#	245565
#
# Disc length: 3549 seconds
#
# Revision: 0
# Processed by: cddbd v1.5.1PL0 Copyright (c) Steve Scherf et al.
# Submitted via: cdripper 1.0.7
#
DISCID=b10ddb0e
DTITLE=Shirley King - Daughter of the Blues
DYEAR=1999
DGENRE=Blues
TTITLE0=Love of Mine
TTITLE1=Got My Mojo Working
TTITLE2=Woke up This Morning
TTITLE3=Last Two Dollars
TTITLE4=Tell Mama
TTITLE5=Rock Me Baby
TTITLE6=Saved
TTITLE7=Ghetto Woman
TTITLE8=Everyday I Have the Blues
TTITLE9=Why I Sing the Blues
TTITLE10=The Thrill Is Gone
TTITLE11=Wang Dang Doodle
TTITLE12=Aggravation
TTITLE13=Sweet Home Chicago
EXTD=YEAR: 1999
EXTT0=
EXTT1=
EXTT2=
EXTT3=
EXTT4=
EXTT5=
EXTT6=
EXTT7=
EXTT8=
EXTT9=
EXTT10=
EXTT11=
EXTT12=
EXTT13=
PLAYORDER=
